<svg xmlns="http://www.w3.org/2000/svg" xmlns:svg="http://www.w3.org/2000/svg" id="svg8" width="146.384" height="10mm" version="1.1" viewBox="0 0 38.731 10"><metadata id="metadata5"/><g id="layer1" transform="translate(108.46167,-135.5276)"><flowRoot style="font-style:normal;font-variant:normal;font-weight:400;font-stretch:normal;font-size:40px;line-height:1.25;font-family:optima;-inkscape-font-specification:optima;letter-spacing:0;word-spacing:0;fill:#000;fill-opacity:1;stroke:none" id="flowRoot815" transform="scale(0.26458333)" xml:space="preserve"><flowRegion style="font-style:normal;font-variant:normal;font-weight:400;font-stretch:normal;font-family:optima;-inkscape-font-specification:optima" id="flowRegion817"><rect style="font-style:normal;font-variant:normal;font-weight:400;font-stretch:normal;font-family:optima;-inkscape-font-specification:optima" id="rect819" width="697.143" height="371.429" x="-634.286" y="339.663"/></flowRegion><flowPara style="font-style:normal;font-variant:normal;font-weight:400;font-stretch:normal;font-family:optima;-inkscape-font-specification:optima" id="flowPara821"/></flowRoot><flowRoot style="font-style:normal;font-weight:400;font-size:40px;line-height:1.25;font-family:sans-serif;letter-spacing:0;word-spacing:0;fill:#000;fill-opacity:1;stroke:none" id="flowRoot843" xml:space="preserve"><flowRegion id="flowRegion845"><rect id="rect847" width="296.429" height="292.143" x="-550.714" y="472.52"/></flowRegion><flowPara id="flowPara849"/></flowRoot><g id="g984" transform="matrix(0.26458333,0,0,0.26458333,-727.61969,-953.207)"><rect id="rect830" width="316.35" height="115.036" x="2267.664" y="4083.037" style="fill:#fff;fill-opacity:1;stroke:#0e0000;stroke-width:10.49476528;stroke-linecap:butt;stroke-linejoin:miter;stroke-miterlimit:4;stroke-dasharray:none;stroke-dashoffset:0;stroke-opacity:1;paint-order:normal"/><path style="fill:#000;fill-opacity:1;stroke:none;stroke-width:.50425786;stroke-linecap:butt;stroke-linejoin:miter;stroke-miterlimit:4;stroke-dasharray:none;stroke-opacity:1" id="path982" d="m 1901.4101,4088.5477 c -0.8735,-3.7042 -6.35,-27.8769 -1.8762,-30.9742 0,0 16.6167,-5.4357 33.7933,-17.0321 l 0.1056,17.9645 -27.0285,17.557 c 2.5433,17.2795 -1.7434,76.6757 -1.686,76.6349 34.2042,-24.3426 38.0244,-51.5534 38.0069,-51.6058 -4.3029,-12.9278 -7.2071,-30.5049 3.4422,-35.4661 0.032,-4.1394 -0.6414,-5.0097 -3.1617,-8.0524 6.3419,-46.5971 -8.303,-75.3708 -44.2996,-90.3 -6.5767,-4.5414 -7.5925,-7.8587 -7.5925,-7.8587 0,0 -1.0159,3.3173 -7.5926,7.8587 -35.9966,14.9292 -50.6414,43.7029 -44.2996,90.3 -2.5202,3.0427 -3.1934,3.913 -3.1617,8.0524 10.6493,4.9612 7.7451,22.5383 3.4422,35.4661 -0.017,0.052 3.8027,27.2632 38.0069,51.6058 0.057,0.041 -4.2293,-59.3554 -1.686,-76.6349 l -27.0285,-17.557 0.1056,-17.9645 c 17.1766,11.5964 33.7933,17.0321 33.7933,17.0321 4.4738,3.0973 -1.0027,27.27 -1.8762,30.9742 -0.076,0.3215 10.2966,11.0799 10.2966,11.0799 0,0 10.3723,-10.7584 10.2965,-11.0799 z"/><g id="g838" transform="matrix(0.10098182,0,0,0.10098182,2138.3724,3730.1341)"><flowRoot style="font-style:normal;font-variant:normal;font-weight:400;font-stretch:normal;font-size:40px;line-height:1.25;font-family:'Noto Sans Old Italic';-inkscape-font-specification:'Noto Sans Old Italic, ';letter-spacing:0;word-spacing:0;fill:#000;fill-opacity:1;stroke:none" id="flowRoot980" transform="matrix(2.295805,0,0,2.295805,4573.8947,3010.2037)" xml:space="preserve"><flowRegion style="font-style:normal;font-variant:normal;font-weight:400;font-stretch:normal;font-family:'Noto Sans Old Italic';-inkscape-font-specification:'Noto Sans Old Italic, '" id="flowRegion976"><rect style="font-style:normal;font-variant:normal;font-weight:400;font-stretch:normal;font-family:'Noto Sans Old Italic';-inkscape-font-specification:'Noto Sans Old Italic, '" id="rect974" width="852.857" height="180.714" x="-914.286" y="433.234"/></flowRegion><flowPara id="flowPara978" style="font-style:normal;font-variant:normal;font-weight:400;font-stretch:normal;font-family:Pirulen;-inkscape-font-specification:Pirulen">acheron</flowPara></flowRoot><path style="fill:#000;fill-opacity:1;stroke:none;stroke-width:.50425786;stroke-linecap:butt;stroke-linejoin:miter;stroke-miterlimit:4;stroke-dasharray:none;stroke-opacity:1" id="path831" d="m 2405.4763,4088.5477 c -0.8735,-3.7042 -6.35,-27.8769 -1.8762,-30.9742 0,0 16.6167,-5.4357 33.7933,-17.0321 l 0.1056,17.9645 -27.0285,17.557 c 2.5433,17.2795 -1.7434,76.6757 -1.686,76.6349 34.2042,-24.3426 38.0244,-51.5534 38.0069,-51.6058 -4.3029,-12.9278 -7.2071,-30.5049 3.4422,-35.4661 0.032,-4.1394 -0.6414,-5.0097 -3.1617,-8.0524 6.3419,-46.5971 -8.303,-75.3708 -44.2996,-90.3 -6.5767,-4.5414 -7.5925,-7.8587 -7.5925,-7.8587 0,0 -1.0159,3.3173 -7.5926,7.8587 -35.9966,14.9292 -50.6414,43.7029 -44.2996,90.3 -2.5202,3.0427 -3.1934,3.913 -3.1617,8.0524 10.6493,4.9612 7.7451,22.5383 3.4422,35.4661 -0.017,0.052 3.8027,27.2632 38.0069,51.6058 0.057,0.041 -4.2293,-59.3554 -1.686,-76.6349 l -12.8057,-8.2999 -5.392,21.1251 0.3468,-24.2697 -9.1776,-6.1125 0.1056,-17.9645 c 4.5925,3.1005 7.9453,5.0661 12.1508,7.2997 0.5058,0.2686 6.0603,-19.8784 6.0603,-19.8784 0,0 -2.0227,22.0229 -1.6897,22.1921 10.2848,5.2318 17.2723,7.4187 17.2723,7.4187 4.4738,3.0973 -1.0027,27.27 -1.8762,30.9742 -0.076,0.3215 10.2966,11.0799 10.2966,11.0799 0,0 10.3723,-10.7584 10.2965,-11.0799 z"/><flowRoot id="flowRoot976" transform="matrix(1.5636165,0,0,1.5636165,3903.1096,3321.4048)" xml:space="preserve" style="font-style:normal;font-variant:normal;font-weight:400;font-stretch:normal;font-size:11.88009548px;line-height:1.25;font-family:'Noto Sans Old Italic';-inkscape-font-specification:'Noto Sans Old Italic, ';letter-spacing:0;word-spacing:0;fill:#000;fill-opacity:1;stroke:none"><flowRegion id="flowRegion972" style="font-style:normal;font-variant:normal;font-weight:400;font-stretch:normal;font-size:11.88009548px;font-family:'Noto Sans Old Italic';-inkscape-font-specification:'Noto Sans Old Italic, '"><rect id="rect970" width="852.857" height="180.714" x="-914.286" y="433.234" style="font-style:normal;font-variant:normal;font-weight:400;font-stretch:normal;font-size:11.88009548px;font-family:'Noto Sans Old Italic';-inkscape-font-specification:'Noto Sans Old Italic, '"/></flowRegion><flowPara style="font-style:normal;font-variant:normal;font-weight:400;font-stretch:normal;font-size:11.88009548px;font-family:inconsolata;-inkscape-font-specification:inconsolata" id="flowPara974">http://gondolindrim.github.io/AcheronDocs</flowPara></flowRoot></g></g></g></svg>