<svg xmlns="http://www.w3.org/2000/svg" xmlns:svg="http://www.w3.org/2000/svg" id="svg8" width="75.591" height="30mm" version="1.1" viewBox="0 0 20 30"><metadata id="metadata5"/><g id="layer1" transform="translate(117.55568,-120.86104)"><flowRoot style="font-style:normal;font-variant:normal;font-weight:400;font-stretch:normal;font-size:40px;line-height:1.25;font-family:optima;-inkscape-font-specification:optima;letter-spacing:0;word-spacing:0;fill:#000;fill-opacity:1;stroke:none" id="flowRoot815" transform="scale(0.26458333)" xml:space="preserve"><flowRegion style="font-style:normal;font-variant:normal;font-weight:400;font-stretch:normal;font-family:optima;-inkscape-font-specification:optima" id="flowRegion817"><rect style="font-style:normal;font-variant:normal;font-weight:400;font-stretch:normal;font-family:optima;-inkscape-font-specification:optima" id="rect819" width="697.143" height="371.429" x="-634.286" y="339.663"/></flowRegion><flowPara style="font-style:normal;font-variant:normal;font-weight:400;font-stretch:normal;font-family:optima;-inkscape-font-specification:optima" id="flowPara821"/></flowRoot><flowRoot style="font-style:normal;font-weight:400;font-size:40px;line-height:1.25;font-family:sans-serif;letter-spacing:0;word-spacing:0;fill:#000;fill-opacity:1;stroke:none" id="flowRoot843" xml:space="preserve"><flowRegion id="flowRegion845"><rect id="rect847" width="296.429" height="292.143" x="-550.714" y="472.52"/></flowRegion><flowPara id="flowPara849"/></flowRoot><g id="g984" transform="matrix(0.26458333,0,0,0.26458333,-727.61969,-953.207)"><g id="g838" transform="matrix(0.30292696,0,0,0.30292696,1596.8669,2913.6599)"><flowRoot style="font-style:normal;font-variant:normal;font-weight:400;font-stretch:normal;font-size:40px;line-height:1.25;font-family:'Noto Sans Old Italic';-inkscape-font-specification:'Noto Sans Old Italic, ';letter-spacing:0;word-spacing:0;fill:#000;fill-opacity:1;stroke:none" id="flowRoot980" transform="matrix(0,1.3998836,-1.3998836,0,3207.6652,5062.3554)" xml:space="preserve"><flowRegion style="font-style:normal;font-variant:normal;font-weight:400;font-stretch:normal;font-family:'Noto Sans Old Italic';-inkscape-font-specification:'Noto Sans Old Italic, '" id="flowRegion976"><rect style="font-style:normal;font-variant:normal;font-weight:400;font-stretch:normal;font-family:'Noto Sans Old Italic';-inkscape-font-specification:'Noto Sans Old Italic, '" id="rect974" width="852.857" height="180.714" x="-914.286" y="433.234"/></flowRegion><flowPara id="flowPara978" style="font-style:normal;font-variant:normal;font-weight:400;font-stretch:normal;font-family:Pirulen;-inkscape-font-specification:Pirulen">acheron</flowPara></flowRoot><path style="fill:#000;fill-opacity:1;stroke:none;stroke-width:.92183179;stroke-linecap:butt;stroke-linejoin:miter;stroke-miterlimit:4;stroke-dasharray:none;stroke-opacity:1" id="path831" d="m 2459.5936,4029.0103 c -1.5969,-6.7716 -11.6085,-50.9616 -3.4299,-56.6238 0,0 30.377,-9.937 61.7774,-31.1362 l 0.193,32.8407 -49.4106,32.0959 c 4.6494,31.5887 -3.1872,140.1705 -3.0822,140.096 62.5286,-44.5007 69.5123,-94.2446 69.4803,-94.3404 -7.8661,-23.6333 -13.1754,-55.7658 6.2927,-64.8354 0.059,-7.5672 -1.1726,-9.1583 -5.78,-14.7206 11.5937,-85.1839 -15.1786,-137.785 -80.9839,-165.0771 -12.0228,-8.302 -13.8798,-14.3664 -13.8798,-14.3664 0,0 -1.8572,6.0644 -13.88,14.3664 -65.8053,27.2921 -92.5774,79.8932 -80.9839,165.0771 -4.6073,5.5623 -5.8379,7.1534 -5.78,14.7206 19.4681,9.0696 14.1588,41.2021 6.2927,64.8354 -0.032,0.094 6.9517,49.8397 69.4803,94.3404 0.105,0.075 -7.7316,-108.5073 -3.0822,-140.096 l -23.4101,-15.1729 -9.8571,38.6187 0.6341,-44.3675 -16.7775,-11.1742 0.193,-32.8407 c 8.3955,5.6679 14.5248,9.2613 22.2128,13.3444 0.9247,0.4911 11.0788,-36.3396 11.0788,-36.3396 0,0 -3.6976,40.26 -3.0889,40.5693 18.8016,9.5643 31.5754,13.5621 31.5754,13.5621 8.1786,5.6622 -1.833,49.8522 -3.4299,56.6238 -0.1395,0.5877 18.8232,20.2551 18.8232,20.2551 0,0 18.9615,-19.6674 18.8231,-20.2551 z"/></g></g></g></svg>