<svg xmlns="http://www.w3.org/2000/svg" xmlns:svg="http://www.w3.org/2000/svg" id="svg8" width="65.969" height="81.717" version="1.1" viewBox="0 0 17.454 21.621"><defs id="defs2"><marker id="Arrow2Mend" orient="auto" refX="0" refY="0" style="overflow:visible"><path id="path880" d="M 8.7185878,4.0337352 -2.2072895,0.01601326 8.7185884,-4.0017078 c -1.7454984,2.3720609 -1.7354408,5.6174519 -6e-7,8.035443 z" transform="scale(-0.6)" style="fill:#000;fill-opacity:1;fill-rule:evenodd;stroke:#000;stroke-width:.625;stroke-linejoin:round;stroke-opacity:1"/></marker><marker id="marker1496" orient="auto" refX="0" refY="0" style="overflow:visible"><path id="path1494" d="M 0,0 5,-5 -12.5,0 5,5 Z" transform="matrix(-0.4,0,0,-0.4,-4,0)" style="fill:#000;fill-opacity:1;fill-rule:evenodd;stroke:#000;stroke-width:1.00000003pt;stroke-opacity:1"/></marker><marker id="Arrow1Mend" orient="auto" refX="0" refY="0" style="overflow:visible"><path id="path862" d="M 0,0 5,-5 -12.5,0 5,5 Z" transform="matrix(-0.4,0,0,-0.4,-4,0)" style="fill:#000;fill-opacity:1;fill-rule:evenodd;stroke:#000;stroke-width:1.00000003pt;stroke-opacity:1"/></marker><marker id="Arrow2Lend" orient="auto" refX="0" refY="0" style="overflow:visible"><path id="path874" d="M 8.7185878,4.0337352 -2.2072895,0.01601326 8.7185884,-4.0017078 c -1.7454984,2.3720609 -1.7354408,5.6174519 -6e-7,8.035443 z" transform="matrix(-1.1,0,0,-1.1,-1.1,0)" style="fill:#000;fill-opacity:1;fill-rule:evenodd;stroke:#000;stroke-width:.625;stroke-linejoin:round;stroke-opacity:1"/></marker><marker id="Arrow2Send" orient="auto" refX="0" refY="0" style="overflow:visible"><path id="path886" d="M 8.7185878,4.0337352 -2.2072895,0.01601326 8.7185884,-4.0017078 c -1.7454984,2.3720609 -1.7354408,5.6174519 -6e-7,8.035443 z" transform="matrix(-0.3,0,0,-0.3,0.69,0)" style="fill:#000;fill-opacity:1;fill-rule:evenodd;stroke:#000;stroke-width:.625;stroke-linejoin:round;stroke-opacity:1"/></marker></defs><metadata id="metadata5"/><g id="layer1" transform="translate(-35.290462,-127.66458)"><path style="fill:none;stroke:#000;stroke-width:.5;stroke-linecap:butt;stroke-linejoin:miter;stroke-miterlimit:4;stroke-dasharray:none;stroke-opacity:1;marker-end:url(#Arrow2Mend)" id="path851" d="M 36.21502,149.13313 52.251193,128.28611"/><flowRoot id="flowRoot815" transform="scale(0.26458333)" xml:space="preserve" style="font-style:normal;font-variant:normal;font-weight:400;font-stretch:normal;font-size:40px;line-height:1.25;font-family:Zian;-inkscape-font-specification:Zian;letter-spacing:0;word-spacing:0;fill:#000;fill-opacity:1;stroke:none"><flowRegion id="flowRegion817" style="font-style:normal;font-variant:normal;font-weight:400;font-stretch:normal;font-family:Zian;-inkscape-font-specification:Zian"><rect id="rect819" width="799.031" height="329.31" x="-195.97" y="479.053" style="font-style:normal;font-variant:normal;font-weight:400;font-stretch:normal;font-family:Zian;-inkscape-font-specification:Zian"/></flowRegion><flowPara id="flowPara821"/></flowRoot><circle style="fill:#fff;fill-opacity:1;stroke:#0e0000;stroke-width:.30000001;stroke-linecap:butt;stroke-linejoin:miter;stroke-miterlimit:4;stroke-dasharray:none;stroke-dashoffset:0;stroke-opacity:1;paint-order:normal" id="path839" cx="43.732" cy="139.01" r="8.292"/><circle id="circle841" cx="43.732" cy="139.01" r="6.861" style="fill:#ffffef;fill-opacity:1;stroke:#0e0000;stroke-width:.33597216;stroke-linecap:butt;stroke-linejoin:miter;stroke-miterlimit:4;stroke-dasharray:none;stroke-dashoffset:0;stroke-opacity:1;paint-order:normal"/><flowRoot style="font-style:normal;font-variant:normal;font-weight:400;font-stretch:normal;font-size:40px;line-height:1.25;font-family:Pirulen;-inkscape-font-specification:Pirulen;letter-spacing:0;word-spacing:0;fill:#000;fill-opacity:1;stroke:none" id="flowRoot849" transform="matrix(0.26458333,0,0,0.26458333,118.66767,32.515746)" xml:space="preserve"><flowRegion style="font-style:normal;font-variant:normal;font-weight:400;font-stretch:normal;font-family:Pirulen;-inkscape-font-specification:Pirulen" id="flowRegion845"><rect style="font-style:normal;font-variant:normal;font-weight:400;font-stretch:normal;font-family:Pirulen;-inkscape-font-specification:Pirulen" id="rect843" width="865.701" height="375.777" x="-304.056" y="379.047"/></flowRegion><flowPara id="flowPara847">a</flowPara></flowRoot></g></svg>