<svg xmlns="http://www.w3.org/2000/svg" xmlns:svg="http://www.w3.org/2000/svg" id="svg8" width="210mm" height="297mm" version="1.1" viewBox="0 0 210 297"><metadata id="metadata5"/><g id="layer1"><rect style="fill:#fff;fill-opacity:1;stroke:#000;stroke-width:.25399998;stroke-linecap:round;stroke-linejoin:round;stroke-miterlimit:4;stroke-dasharray:none;stroke-dashoffset:0;stroke-opacity:1;paint-order:normal" id="rect912" width="8.954" height="5.696" x="-4.477" y="294.152" rx=".5" ry=".5"/><rect style="fill:none;fill-opacity:1;stroke:#000;stroke-width:.25400001;stroke-linecap:round;stroke-linejoin:round;stroke-miterlimit:4;stroke-dasharray:none;stroke-dashoffset:0;stroke-opacity:1;paint-order:normal" id="rect815" width="2.1" height="4.5" x="8.95" y="294.75" ry="1.05"/><g id="g932" transform="translate(9.2,0.70001223)"><g id="g938"><rect style="fill:#000;fill-opacity:1;stroke:none;stroke-width:.1;stroke-linecap:round;stroke-linejoin:round;stroke-miterlimit:4;stroke-dasharray:none;stroke-dashoffset:0;stroke-opacity:1;paint-order:normal" id="rect819" width="1.6" height="1.4" x="1.3" y="296.55" ry="0"/><rect id="rect821" width="1.6" height="1.4" x="-1.3" y="294.65" rx=".5" ry=".5" style="fill:#000;fill-opacity:1;stroke:none;stroke-width:.1;stroke-linecap:round;stroke-linejoin:round;stroke-miterlimit:4;stroke-dasharray:none;stroke-dashoffset:0;stroke-opacity:1;paint-order:normal"/><rect style="fill:#000;fill-opacity:1;stroke:none;stroke-width:.1;stroke-linecap:round;stroke-linejoin:round;stroke-miterlimit:4;stroke-dasharray:none;stroke-dashoffset:0;stroke-opacity:1;paint-order:normal" id="rect823" width="1.6" height="1.4" x="-1.3" y="296.55" ry="0"/><rect id="rect825" width="1.6" height="1.4" x="1.3" y="294.65" ry="0" style="fill:#000;fill-opacity:1;stroke:none;stroke-width:.1;stroke-linecap:round;stroke-linejoin:round;stroke-miterlimit:4;stroke-dasharray:none;stroke-dashoffset:0;stroke-opacity:1;paint-order:normal"/></g></g><g id="g1016" transform="translate(0,10.000019)"><path id="rect944" d="m -6.046875,1078.4883 c -1.0469291,0 -1.890625,0.8437 -1.890625,1.8906 v 1.5117 c 0,1.047 0.8436959,1.8887 1.890625,1.8887 h 2.078125 v -3.5898 c 0,-0.6039 0.1435626,-1.1703 0.3828125,-1.6817 -0.064623,-0.01 -0.1269301,-0.02 -0.1933594,-0.02 z" transform="scale(0.26458333)" style="fill:#000;fill-opacity:1;stroke:none;stroke-width:.37795275;stroke-linecap:round;stroke-linejoin:round;stroke-miterlimit:4;stroke-dasharray:none;stroke-dashoffset:0;stroke-opacity:1;paint-order:normal"/><path id="rect946" d="m -7.9375,1085.6699 v 5.291 h 4.3632812 c -0.2457316,-0.5169 -0.3945312,-1.0886 -0.3945312,-1.7011 v -3.5899 z" transform="scale(0.26458333)" style="fill:#000;fill-opacity:1;stroke:none;stroke-width:.37795275;stroke-linecap:round;stroke-linejoin:round;stroke-miterlimit:4;stroke-dasharray:none;stroke-dashoffset:0;stroke-opacity:1;paint-order:normal"/><path style="fill:#000;fill-opacity:1;stroke:none;stroke-width:.1;stroke-linecap:round;stroke-linejoin:round;stroke-miterlimit:4;stroke-dasharray:none;stroke-dashoffset:0;stroke-opacity:1;paint-order:normal" id="path1008" d="M 2.0980631,287.25009 V 288.65 H 0.94361166 c 0.065017,-0.13677 0.10438634,-0.28803 0.10438634,-0.45008 v -0.94983 z"/><path id="path1010" d="M 2.0980631,286.75001 V 285.3501 H 0.94361166 c 0.065017,0.13677 0.10438634,0.28803 0.10438634,0.45008 v 0.94983 z" style="fill:#000;fill-opacity:1;stroke:none;stroke-width:.1;stroke-linecap:round;stroke-linejoin:round;stroke-miterlimit:4;stroke-dasharray:none;stroke-dashoffset:0;stroke-opacity:1;paint-order:normal"/></g></g></svg>